<svg xmlns="http://www.w3.org/2000/svg" width="900" height="420" viewBox="0 0 900 420" font-family="ui-sans-serif, system-ui, sans-serif">
<!-- generated by scripts/papers/figures.py from benchmarks/results/m4-pro-12c-24gb-mac16-8/ab/baseline-vs-current-synthetic.json -->
<!-- command: scripts/dev.sh papers figures <paper-dir> -->
<rect width="900" height="420" fill="#ffffff"/>
<text x="190" y="26" font-size="15" font-weight="600" fill="#111">Peak resident memory per build: baseline against current</text>
<rect x="799" y="16" width="10" height="10" fill="#2f6f4f"/>
<text x="814" y="25" font-size="11" fill="#444">current</text>
<rect x="715" y="16" width="10" height="10" fill="#9aa5b1"/>
<text x="730" y="25" font-size="11" fill="#444">baseline</text>
<text x="180" y="67.77777777777777" font-size="11.5" text-anchor="end" fill="#222">simple-pages-4000</text>
<rect x="190" y="49.2" width="51.1" height="10.9" fill="#9aa5b1"/>
<text x="247.1" y="57.6" font-size="10.5" fill="#333">366 MB</text>
<rect x="190" y="61.9" width="20.1" height="10.9" fill="#2f6f4f"/>
<text x="216.1" y="70.3" font-size="10.5" fill="#333">144 MB</text>
<text x="180" y="103.33333333333334" font-size="11.5" text-anchor="end" fill="#222">mixed-realistic-4000</text>
<rect x="190" y="84.7" width="182.4" height="10.9" fill="#9aa5b1"/>
<text x="378.4" y="93.1" font-size="10.5" fill="#333">1,307 MB</text>
<rect x="190" y="97.4" width="30.3" height="10.9" fill="#2f6f4f"/>
<text x="226.3" y="105.8" font-size="10.5" fill="#333">217 MB</text>
<text x="180" y="138.88888888888889" font-size="11.5" text-anchor="end" fill="#222">many-taxonomies-4000</text>
<rect x="190" y="120.3" width="226.0" height="10.9" fill="#9aa5b1"/>
<text x="422.0" y="128.7" font-size="10.5" fill="#333">1,618 MB</text>
<rect x="190" y="133.0" width="25.1" height="10.9" fill="#2f6f4f"/>
<text x="221.1" y="141.4" font-size="10.5" fill="#333">180 MB</text>
<text x="180" y="174.44444444444446" font-size="11.5" text-anchor="end" fill="#222">markdown-heavy-4000</text>
<rect x="190" y="155.8" width="181.1" height="10.9" fill="#9aa5b1"/>
<text x="377.1" y="164.2" font-size="10.5" fill="#333">1,297 MB</text>
<rect x="190" y="168.5" width="70.5" height="10.9" fill="#2f6f4f"/>
<text x="266.5" y="176.9" font-size="10.5" fill="#333">505 MB</text>
<text x="180" y="210.0" font-size="11.5" text-anchor="end" fill="#222">data-heavy-4000</text>
<rect x="190" y="191.4" width="126.9" height="10.9" fill="#9aa5b1"/>
<text x="322.9" y="199.8" font-size="10.5" fill="#333">909 MB</text>
<rect x="190" y="204.1" width="76.7" height="10.9" fill="#2f6f4f"/>
<text x="272.7" y="212.5" font-size="10.5" fill="#333">549 MB</text>
<text x="180" y="245.55555555555554" font-size="11.5" text-anchor="end" fill="#222">dense-internal-links-4000</text>
<rect x="190" y="227.0" width="120.1" height="10.9" fill="#9aa5b1"/>
<text x="316.1" y="235.3" font-size="10.5" fill="#333">860 MB</text>
<rect x="190" y="239.7" width="42.7" height="10.9" fill="#2f6f4f"/>
<text x="238.7" y="248.0" font-size="10.5" fill="#333">306 MB</text>
<text x="180" y="281.11111111111114" font-size="11.5" text-anchor="end" fill="#222">deep-sections-4000</text>
<rect x="190" y="262.5" width="53.5" height="10.9" fill="#9aa5b1"/>
<text x="249.5" y="270.9" font-size="10.5" fill="#333">383 MB</text>
<rect x="190" y="275.2" width="22.4" height="10.9" fill="#2f6f4f"/>
<text x="218.4" y="283.6" font-size="10.5" fill="#333">160 MB</text>
<text x="180" y="316.6666666666667" font-size="11.5" text-anchor="end" fill="#222">template-heavy-4000</text>
<rect x="190" y="298.1" width="56.7" height="10.9" fill="#9aa5b1"/>
<text x="252.7" y="306.4" font-size="10.5" fill="#333">406 MB</text>
<rect x="190" y="310.8" width="23.6" height="10.9" fill="#2f6f4f"/>
<text x="219.6" y="319.1" font-size="10.5" fill="#333">169 MB</text>
<text x="180" y="352.22222222222223" font-size="11.5" text-anchor="end" fill="#222">mixed-realistic-16000</text>
<rect x="190" y="333.6" width="686.0" height="10.9" fill="#9aa5b1"/>
<text x="882.0" y="342.0" font-size="10.5" fill="#333">4,913 MB</text>
<rect x="190" y="346.3" width="80.2" height="10.9" fill="#2f6f4f"/>
<text x="276.2" y="354.7" font-size="10.5" fill="#333">574 MB</text>
<line x1="190" y1="46" x2="190" y2="366" stroke="#ccc"/>
<text x="190" y="402" font-size="10.5" fill="#666">Same runs as the wall-time figure. The effect grows with site size.</text>
</svg>
