<svg xmlns="http://www.w3.org/2000/svg" width="900" height="420" viewBox="0 0 900 420" font-family="ui-sans-serif, system-ui, sans-serif">
<!-- generated by scripts/papers/figures.py from benchmarks/results/m4-pro-12c-24gb-mac16-8/ab/baseline-vs-current-synthetic.json -->
<!-- command: scripts/dev.sh papers figures <paper-dir> -->
<rect width="900" height="420" fill="#ffffff"/>
<text x="190" y="26" font-size="15" font-weight="600" fill="#111">Wall time per build: baseline (9ec4407a) against current</text>
<rect x="799" y="16" width="10" height="10" fill="#2f6f4f"/>
<text x="814" y="25" font-size="11" fill="#444">current</text>
<rect x="715" y="16" width="10" height="10" fill="#9aa5b1"/>
<text x="730" y="25" font-size="11" fill="#444">baseline</text>
<text x="180" y="67.77777777777777" font-size="11.5" text-anchor="end" fill="#222">simple-pages-4000</text>
<rect x="190" y="49.2" width="76.3" height="10.9" fill="#9aa5b1"/>
<text x="272.3" y="57.6" font-size="10.5" fill="#333">1.07 s</text>
<rect x="190" y="61.9" width="60.0" height="10.9" fill="#2f6f4f"/>
<text x="256.0" y="70.3" font-size="10.5" fill="#333">0.84 s</text>
<text x="180" y="103.33333333333334" font-size="11.5" text-anchor="end" fill="#222">mixed-realistic-4000</text>
<rect x="190" y="84.7" width="137.4" height="10.9" fill="#9aa5b1"/>
<text x="333.4" y="93.1" font-size="10.5" fill="#333">1.92 s</text>
<rect x="190" y="97.4" width="77.3" height="10.9" fill="#2f6f4f"/>
<text x="273.3" y="105.8" font-size="10.5" fill="#333">1.08 s</text>
<text x="180" y="138.88888888888889" font-size="11.5" text-anchor="end" fill="#222">many-taxonomies-4000</text>
<rect x="190" y="120.3" width="138.1" height="10.9" fill="#9aa5b1"/>
<text x="334.1" y="128.7" font-size="10.5" fill="#333">1.93 s</text>
<rect x="190" y="133.0" width="67.7" height="10.9" fill="#2f6f4f"/>
<text x="263.7" y="141.4" font-size="10.5" fill="#333">0.94 s</text>
<text x="180" y="174.44444444444446" font-size="11.5" text-anchor="end" fill="#222">markdown-heavy-4000</text>
<rect x="190" y="155.8" width="514.6" height="10.9" fill="#9aa5b1"/>
<text x="710.6" y="164.2" font-size="10.5" fill="#333">7.18 s</text>
<rect x="190" y="168.5" width="137.0" height="10.9" fill="#2f6f4f"/>
<text x="333.0" y="176.9" font-size="10.5" fill="#333">1.91 s</text>
<text x="180" y="210.0" font-size="11.5" text-anchor="end" fill="#222">data-heavy-4000</text>
<rect x="190" y="191.4" width="193.3" height="10.9" fill="#9aa5b1"/>
<text x="389.3" y="199.8" font-size="10.5" fill="#333">2.70 s</text>
<rect x="190" y="204.1" width="93.7" height="10.9" fill="#2f6f4f"/>
<text x="289.7" y="212.5" font-size="10.5" fill="#333">1.31 s</text>
<text x="180" y="245.55555555555554" font-size="11.5" text-anchor="end" fill="#222">dense-internal-links-4000</text>
<rect x="190" y="227.0" width="161.1" height="10.9" fill="#9aa5b1"/>
<text x="357.1" y="235.3" font-size="10.5" fill="#333">2.25 s</text>
<rect x="190" y="239.7" width="82.5" height="10.9" fill="#2f6f4f"/>
<text x="278.5" y="248.0" font-size="10.5" fill="#333">1.15 s</text>
<text x="180" y="281.11111111111114" font-size="11.5" text-anchor="end" fill="#222">deep-sections-4000</text>
<rect x="190" y="262.5" width="78.9" height="10.9" fill="#9aa5b1"/>
<text x="274.9" y="270.9" font-size="10.5" fill="#333">1.10 s</text>
<rect x="190" y="275.2" width="67.7" height="10.9" fill="#2f6f4f"/>
<text x="263.7" y="283.6" font-size="10.5" fill="#333">0.95 s</text>
<text x="180" y="316.6666666666667" font-size="11.5" text-anchor="end" fill="#222">template-heavy-4000</text>
<rect x="190" y="298.1" width="85.9" height="10.9" fill="#9aa5b1"/>
<text x="281.9" y="306.4" font-size="10.5" fill="#333">1.20 s</text>
<rect x="190" y="310.8" width="77.2" height="10.9" fill="#2f6f4f"/>
<text x="273.2" y="319.1" font-size="10.5" fill="#333">1.08 s</text>
<text x="180" y="352.22222222222223" font-size="11.5" text-anchor="end" fill="#222">mixed-realistic-16000</text>
<rect x="190" y="333.6" width="686.0" height="10.9" fill="#9aa5b1"/>
<text x="882.0" y="342.0" font-size="10.5" fill="#333">9.57 s</text>
<rect x="190" y="346.3" width="302.6" height="10.9" fill="#2f6f4f"/>
<text x="498.6" y="354.7" font-size="10.5" fill="#333">4.22 s</text>
<line x1="190" y1="46" x2="190" y2="366" stroke="#ccc"/>
<text x="190" y="402" font-size="10.5" fill="#666">Median of three interleaved rounds, order flipped each round. Apple M4 Pro, 12 cores, 24 GiB.</text>
</svg>
