<?xml version="1.0" encoding="UTF-8"?><svg id="a" xmlns="http://www.w3.org/2000/svg" xmlns:xlink="http://www.w3.org/1999/xlink" viewBox="0 0 128 128"><defs><style>.d{fill:#fff;}.e{fill:url(#b);}</style><linearGradient id="b" x1="63.32" y1="116.03" x2="63.32" y2="11.97" gradientUnits="userSpaceOnUse"><stop offset="0" stop-color="#2f1910"/><stop offset="1" stop-color="#704b37"/></linearGradient></defs><rect class="d" width="128" height="128" rx="6.36" ry="6.36"/><path class="e" d="M103.98,90.1l-1.28,25.94H23.54c-1.35,0-2.45-1.1-2.45-2.45v-.15c0-1.36,.35-2.69,1.01-3.88,0,0,3.51-6.27,45.51-81.14,3.65-6.5,3.89-11.76-7.42-11.76s-23.35,3.94-27.93,22.01c-.27,1.08-1.26,1.83-2.37,1.83-1.4,0-2.52-1.17-2.45-2.57l1.28-25.94H101.96c-7.54,3.46-14.19,7.86-19.79,13.17-6.84,6.49-11.7,13.55-21.14,27.97-6.94,10.61-11.92,19.45-15.01,25.14-5,9.24-8.92,17.47-11.89,24.13,3.31-4.68,8.76-10.87,17.17-14.85,4.15-1.96,7.38-2.61,9.03-3.03,1.81-.47,3.79-1.2,5.92-2.32l-9.76,17.41c-3.65,6.5,1.3,11.76,12.62,11.76s25.47-3.94,30.04-22.01c.27-1.08,1.26-1.83,2.37-1.83,1.4,0,2.52,1.17,2.45,2.57Zm-59.64-2.09c3.01-2.9,7.93-5.37,14.64-7.34l.3-.09c13.04-3.9,29.15-23.1,34.48-41.09,.16-.55,.33-1.16,.52-1.81,1.42-5.08,3.57-12.75,9.82-20.79,.47-.6,.95-1.2,1.45-1.78-7.58,3.53-14.28,8.03-19.98,13.43-4.54,4.3-8.66,9.94-16.13,20.19-5.86,8.04-10.34,14.9-13.96,20.43-1.71,2.61-4.88,7.56-8.66,13.65-1.15,1.85-2.72,4.42-4.21,6.91,.54-.54,1.12-1.12,1.73-1.71Z"/></svg>