<?xml version="1.0" encoding="UTF-8"?><svg id="b" xmlns="http://www.w3.org/2000/svg" viewBox="0 0 382 148"><defs><style>.c{fill:#1d1d1b;}</style></defs><path class="c" d="M169.48,59.99c-24.92,0-47.85,16.82-47.85,44.02,0,22.84,18.16,42.57,47.85,42.57,26.79,0,47.85-15.78,47.85-42.57s-22.94-44.02-47.85-44.02Zm16.2,65.82c0,12.04-6.23,15.37-16.2,15.37s-16.2-3.32-16.2-15.37v-44.23c0-12.67,3.53-16.2,16.2-16.2,13.91,0,16.2,3.53,16.2,16.2v44.23Zm-74.19-16.92l-1.7,34.57H4.27c-1.81,0-3.27-1.46-3.27-3.27v-.2c0-1.81,.46-3.59,1.34-5.17,0,0,4.67-8.36,60.65-108.15,4.86-8.67,5.19-15.68-9.89-15.68s-31.13,5.26-37.22,29.33c-.36,1.44-1.67,2.44-3.16,2.44-1.87,0-3.36-1.56-3.26-3.43L11.16,4.76H108.79c-10.05,4.61-18.91,10.48-26.37,17.55-9.12,8.65-15.6,18.06-28.17,37.29-9.25,14.14-15.89,25.92-20,33.51-6.66,12.31-11.89,23.28-15.84,32.17,4.42-6.24,11.67-14.49,22.88-19.79,5.53-2.62,9.83-3.48,12.04-4.04,2.41-.62,5.05-1.59,7.89-3.09l-13.01,23.2c-4.86,8.67,1.74,15.68,16.82,15.68s33.95-5.26,40.04-29.33c.36-1.44,1.67-2.44,3.16-2.44,1.87,0,3.36,1.56,3.26,3.43Zm268.68,24.05c-1.02-1.07-2.63-1.22-3.89-.45-1.14,.7-2.49,1.2-3.34,1.2-5.81,0-6.02-5.19-6.02-9.55v-50.46c0-6.02-12.41-13.7-39.19-13.7-12.87,0-36.29,5.61-36.29,22.01,0,7.68,6.02,12.46,13.29,12.46,8.93,0,13.29-5.81,13.29-14.54,0-1.66-1.04-3.53-2.08-5.19s-2.08-3.32-2.08-4.36c0-3.74,9.71-4.98,11.99-4.98,15.36,0,15.52,6.44,15.52,17.23v13.91c-18.91,0-54.93,1.96-54.93,29.22,0,12.87,13.08,20.82,24.29,20.82s23.78-5.81,31.05-14.33c2.08,6.64,9.55,14.33,18.48,14.33s14.93-2.61,20.15-9.72c.87-1.19,.76-2.84-.25-3.91Zm-38.79-10.25c0,5.61-6.75,12.04-16.31,12.04-7.04,0-13.65-5.25-13.65-14.8,0-13.44,18.74-17.8,29.96-18.42v21.18Zm-63.4,17.86c0,1.61-1.3,2.91-2.91,2.91h-48.79c-1.61,0-2.91-1.3-2.91-2.91s1.3-2.91,2.91-2.91h6.65c1.61,0,2.91-1.3,2.91-2.91V12.45c0-1.61-1.3-2.91-2.91-2.91h-8.72c-1.61,0-2.91-1.3-2.91-2.91h0c0-1.61,1.3-2.91,2.91-2.91h11.63c20.41,0,17.02-1.15,25.53-1.85,1.68-.14,3.12,1.21,3.12,2.9V134.74c0,1.61,1.3,2.91,2.91,2.91h7.68c1.61,0,2.91,1.3,2.91,2.91ZM23.23,117.24c-.49-.46,9.74-17.1,10.82-18.84,5.29-8.51,9.48-15.04,11.56-18.22,4.68-7.17,10.8-16.53,18.65-27.29,10.4-14.26,15.62-21.38,21.68-27.11,6.52-6.17,17.22-14.56,33.66-21-1.72,1.63-4.18,4.13-6.77,7.47-9.25,11.88-11.66,23.31-13.53,29.63-6.85,23.1-27.96,50.09-46.96,55.77-2.22,.66-13.14,3.76-19.3,9.54-3.93,3.69-6.78,6.91-7.93,8.36-.8,1-1.56,1.98-1.87,1.69Z"/></svg>